<svg xmlns="http://www.w3.org/2000/svg"><symbol id="facebook" viewBox="0 0 24 24"><style>.st0{fill:#fff}</style><path d="M9 8H6v4h3v12h5V12h3.6l.4-4h-4V6.3c0-1 .2-1.3 1.1-1.3H18V0h-3.8C10.6 0 9 1.6 9 4.6V8z" class="st0"/></symbol><symbol id="instagram" viewBox="0 0 24 24"><style>.st0{fill:#fff}</style><path d="M12 2.2c3.2 0 3.6 0 4.9.1 3.3.1 4.8 1.7 4.9 4.9.1 1.3.1 1.6.1 4.8 0 3.2 0 3.6-.1 4.8-.1 3.2-1.7 4.8-4.9 4.9-1.3.1-1.6.1-4.9.1-3.2 0-3.6 0-4.8-.1-3.3-.1-4.8-1.7-4.9-4.9-.1-1.3-.1-1.6-.1-4.8 0-3.2 0-3.6.1-4.8C2.4 4 4 2.4 7.2 2.3c1.2-.1 1.6-.1 4.8-.1zM12 0C8.7 0 8.3 0 7.1.1 2.7.3.3 2.7.1 7.1 0 8.3 0 8.7 0 12s0 3.7.1 4.9c.2 4.4 2.6 6.8 7 7 1.2.1 1.6.1 4.9.1s3.7 0 4.9-.1c4.4-.2 6.8-2.6 7-7 .1-1.2.1-1.6.1-4.9s0-3.7-.1-4.9c-.2-4.4-2.6-6.8-7-7C15.7 0 15.3 0 12 0zm0 5.8c-3.4 0-6.2 2.8-6.2 6.2s2.8 6.2 6.2 6.2 6.2-2.8 6.2-6.2-2.8-6.2-6.2-6.2zM12 16c-2.2 0-4-1.8-4-4s1.8-4 4-4 4 1.8 4 4-1.8 4-4 4zm6.4-11.8c-.8 0-1.4.6-1.4 1.4S17.6 7 18.4 7s1.4-.6 1.4-1.4-.6-1.4-1.4-1.4z" class="st0"/></symbol><symbol id="minus" viewBox="0 0 24 24"><style>.st0{fill:#fff}</style><path d="M0 10h24v4H0v-4z" class="st0"/></symbol><symbol id="plus" viewBox="0 0 24 24"><style>.st0{fill:#fff}</style><path d="M24 9h-9V0H9v9H0v6h9v9h6v-9h9V9z" class="st0"/></symbol><symbol id="shopping-cart" viewBox="0 0 24 24"><style>.st0{fill:#fff}</style><path d="M16.5 7L16 9H.8L0 7h16.5zm-14 6h12.3l.6-2H1.7l.8 2zm6 5c-.8 0-1.5.7-1.5 1.5S7.7 21 8.5 21s1.5-.7 1.5-1.5S9.3 18 8.5 18zM19.8 3l-3.4 12h-13l.8 2h13.7l3.5-12h1.9l.7-2h-4.2zm-6.3 15c-.8 0-1.5.7-1.5 1.5s.7 1.5 1.5 1.5 1.5-.7 1.5-1.5-.7-1.5-1.5-1.5z" class="st0"/></symbol><symbol id="twitter" viewBox="0 0 24 24"><style>.st0{fill:#fff}</style><path d="M24 4.6c-.9.4-1.9.7-2.8.8 1-.6 1.8-1.6 2.2-2.7-1 .6-2 1-3.1 1.2-.9-1-2.2-1.6-3.6-1.6-3.2 0-5.5 3-4.8 6-4-.2-7.6-2.1-10.1-5.1C.4 5.4 1 8.3 3.2 9.7c-.8 0-1.6-.2-2.2-.6-.1 2.3 1.6 4.4 3.9 4.9-.7.2-1.5.2-2.2.1.6 2 2.5 3.4 4.6 3.4-2.1 1.6-4.7 2.4-7.3 2 2.3 1.4 4.9 2.2 7.5 2.2 9.1 0 14.3-7.7 14-14.6 1-.7 1.8-1.6 2.5-2.5z" class="st0"/></symbol></svg>